<?xml version="1.0" encoding="utf-8"?>
<!-- Generator: Adobe Illustrator 17.1.0, SVG Export Plug-In . SVG Version: 6.00 Build 0)  -->
<!DOCTYPE svg PUBLIC "-//W3C//DTD SVG 1.1//EN" "http://www.w3.org/Graphics/SVG/1.1/DTD/svg11.dtd">
<svg version="1.1" id="Layer_4" xmlns="http://www.w3.org/2000/svg" xmlns:xlink="http://www.w3.org/1999/xlink" x="0px" y="0px"
	 viewBox="0 0 107.5 35.7" enable-background="new 0 0 107.5 35.7" xml:space="preserve">
<path fill="#FFFFFF" stroke="#000000" d="M148.9,4L164,30.3c0,0,4.1,6.7,11.3,4.2c6.5-2.5,9.2-3.7,9.2-3.7L169.2,5.3
	c0,0-3.8-6.7-12-4.3C149.8,3.4,148.9,4,148.9,4z"/>
<path fill="#FFFFFF" stroke="#000000" d="M216.2,34c0,0-0.1-4.5-1-8.1c-1.7-6.2-9.4-5.3-12-5.3c-0.9,0-3.5,0-3.5,0l-9.5-14.9
	c0,0-3.8-6.7-12-4.3c-7.4,2.5-6.9,2.6-6.9,2.6L186,29.1c0,0,2.5,4.8,9.8,4.8H216.2z"/>
<g>
	<path d="M17,4l15.2,26.3c0,0,4.1,6.7,11.3,4.2c6.1-2.6,8.1-3.7,8.1-3.7L36.2,5.3c0,0-3.8-6.7-12-4.3C18.2,3.2,17,4,17,4z"/>
	<path d="M40.3,35.6L40.3,35.6c-5.5,0-8.4-4.8-8.6-5L16.3,3.8l0.4-0.3c0.1,0,1.3-0.8,7.3-3C25.3,0.2,26.4,0,27.6,0
		c6.1,0,9,4.9,9.1,5.1l15.6,25.8l-0.5,0.3c-0.1,0-2.1,1.2-8.1,3.8C42.5,35.4,41.4,35.6,40.3,35.6L40.3,35.6z M17.6,4.2l14.9,25.9
		c0,0,2.8,4.5,7.7,4.5c1,0,2-0.2,3-0.5c4.4-1.9,6.7-3,7.5-3.5l-15.1-25c0-0.1-2.7-4.6-8.2-4.6c-1,0-2.1,0.2-3.2,0.5
		C20.2,3,18.4,3.8,17.6,4.2L17.6,4.2z"/>
</g>
<path stroke="#000000" d="M39,4l15.9,26.3c0,0,4.1,6.7,11.3,4.2c6.1-2.6,7.4-3.7,7.4-3.7L58.2,5.3c0,0-3.8-6.7-12-4.3
	C40.2,3.2,39,4,39,4z"/>
<path stroke="#000000" d="M107.5,30.4c0-8.5-8-8.2-10.7-8.2c-2.8,0-7.9,0-7.9,0L78.7,5.7c0,0-3.8-7-12-4.7C62.5,2.5,61,4,61,4
	l16.2,26.3c0,0,2.9,4.7,8,4.8c2.7,0,20.9,0,22.4,0C107.5,34.5,107.5,32.9,107.5,30.4z"/>
<g>
	<path fill="none" d="M16.8,3.8L0.7,31.4c0,0,7.7,4.9,13.6,3.5c5.8-1.4,12-14.7,12-14.7L16.8,3.8z"/>
	<path d="M12,35.7C12,35.7,12,35.7,12,35.7c-5.5,0-11.3-3.7-11.6-3.8L0,31.6L16.3,3.8l0.8-0.4l9.7,16.8l-0.1,0.2
		c-0.3,0.6-6.3,13.6-12.3,15C13.6,35.6,12.8,35.7,12,35.7L12,35.7z M1.4,31.3c1.4,0.8,6.3,3.4,10.6,3.4c0,0,0,0,0,0
		c0.8,0,1.5-0.1,2.1-0.2c5.1-1.2,10.7-12.5,11.5-14.2L16.8,4.8L1.4,31.3L1.4,31.3z"/>
</g>
</svg>
